<svg width="250" height="127" fill="none" xmlns="http://www.w3.org/2000/svg"><g clip-path="url(#clip0_1_2553)"><path d="M32.643 119.369a1.04 1.04 0 01-1.012-.641 1.045 1.045 0 01.255-1.17l.071-.285a2.807 2.807 0 00-4.174-1.305c-.46.308-.817.745-1.029 1.256-.846 2.039-1.924 4.082-2.19 6.238a8.3 8.3 0 00.146 2.855 33.299 33.299 0 01-3.027-13.825 32.274 32.274 0 01.658-6.49 33.677 33.677 0 016.675-14.27 8.96 8.96 0 003.725-3.868 6.8 6.8 0 00.622-1.868 8.43 8.43 0 01-.547.051l-.173.009h-.021a1.034 1.034 0 01-.85-1.686l.235-.289c.119-.149.24-.294.36-.443a.513.513 0 00.038-.045l.41-.505a2.995 2.995 0 00-.98-.95c-1.371-.802-3.262-.246-4.252.994-.993 1.24-1.18 2.98-.836 4.53.34 1.319.9 2.57 1.66 3.7l-.227.283a33.892 33.892 0 00-3.536 5.604 14.093 14.093 0 00-.84-6.544c-.805-1.942-2.314-3.578-3.642-5.257-1.596-2.016-4.867-1.136-5.149 1.42l-.008.074c.198.112.39.23.58.355a1.417 1.417 0 01-.572 2.58l-.028.004c.07.711.194 1.416.371 2.109a14.524 14.524 0 007.228 9.101c.116.06.23.119.345.176a34.602 34.602 0 00-1.861 8.763 32.813 32.813 0 00.024 5.297l-.01-.063a8.67 8.67 0 00-2.957-5.005c-2.277-1.871-5.494-2.56-7.95-4.064a1.625 1.625 0 00-2.491 1.583l.01.065a9.582 9.582 0 011.647.869 1.42 1.42 0 01.182 2.214 1.417 1.417 0 01-.753.366l-.03.005-.059.009a14.113 14.113 0 002.596 4.065 14.514 14.514 0 0010.537 4.626h.003a34.582 34.582 0 002.323 6.781h8.295c.03-.092.057-.187.083-.279a9.444 9.444 0 01-2.295-.137c.615-.756 1.23-1.517 1.846-2.273a.59.59 0 00.039-.044c.312-.387.627-.771.94-1.157v-.001a13.82 13.82 0 00-.405-3.518zm165.405-4.944a1.045 1.045 0 001.745-.898l.129-.264a2.806 2.806 0 014.013 3.313c-.664 2.105-1.154 4.363-2.339 6.183a8.288 8.288 0 01-1.948 2.092 33.284 33.284 0 0011.212-8.631 32.167 32.167 0 003.673-5.39 33.672 33.672 0 004.076-15.22 8.957 8.957 0 01-.363-5.357 6.82 6.82 0 01.726-1.83c.124.135.255.265.386.391l.126.118.016.014a1.038 1.038 0 001.109.19 1.035 1.035 0 00.627-.933l.006-.373c.005-.19.005-.38.01-.57a.58.58 0 01-.001-.06l.012-.65a2.99 2.99 0 011.361-.095c1.566.268 2.655 1.911 2.615 3.498-.039 1.589-1.015 3.041-2.276 4.005a11.995 11.995 0 01-3.651 1.763c-.004.12-.004.241-.009.362a33.81 33.81 0 01-.9 6.565 14.086 14.086 0 014.855-4.466c1.865-.968 4.072-1.249 6.169-1.678 2.519-.516 4.456 2.265 3.026 4.402l-.041.062a9.557 9.557 0 00-.672-.102 1.421 1.421 0 00-1.412.753 1.417 1.417 0 00.189 1.589l.02.022c-.512.499-1.061.959-1.642 1.375a14.52 14.52 0 01-11.388 2.31c-.127-.029-.252-.056-.377-.087a34.601 34.601 0 01-4.214 7.904 32.842 32.842 0 01-3.427 4.038l.047-.042a8.666 8.666 0 015.485-1.925c2.946.034 5.851 1.578 8.698 2.009a1.63 1.63 0 011.343 1.124 1.626 1.626 0 01-.455 1.691l-.05.044a9.423 9.423 0 00-1.819-.395 1.416 1.416 0 00-1.223 2.342l.019.022.04.045a14.113 14.113 0 01-4.603 1.44 14.537 14.537 0 01-11.04-3.246l-.002-.002a34.574 34.574 0 01-6.141 3.694l-6.349-5.342c.037-.089.078-.18.117-.267a9.447 9.447 0 001.844 1.373c.015-.974.034-1.953.05-2.928a.388.388 0 01-.001-.059c.01-.497.015-.993.025-1.49v-.001a13.8 13.8 0 012.574-2.432z" fill="#F2F2F2"/><path d="M60.913 69.538a1.635 1.635 0 01-1.114-2.246l-4.262-3.947 2.931-.72 3.598 3.859a1.644 1.644 0 01-1.153 3.054z" fill="#FFB6B6"/><path d="M47.907 58.771l-4.466-13.044a4.128 4.128 0 012.562-5.235 4.119 4.119 0 015.413 3.298L53.2 55.9l7.469 7.652-1.965 2.8-10.797-7.58z" fill="#3F3D56"/><path d="M40.533 120.308h3.19l1.517-12.304h-4.707v12.304z" fill="#FFB6B6"/><path d="M39.454 118.735l5.04-.301v2.16l4.793 3.311a1.353 1.353 0 01.522 1.513 1.349 1.349 0 01-1.288.948h-9.703l.636-7.631zm3.866-56.223s-.995-1.042-2.9 1.42c-1.76 2.228-1.673 2.663-1.446 5.495.185 2.024-1.628 12.2.18 13.93l1.456 32.59s4.421 1.242 4.63-.841l11.414-41.441-1.364-10.596-11.97-.557z" fill="#2F2E41"/><path d="M64.433 120l2.794-1.537-4.597-11.513-4.124 2.268L64.433 120z" fill="#FFB6B6"/><path d="M62.728 119.142l4.273-2.694 1.04 1.894 5.795.591a1.348 1.348 0 01.513 2.525l-5.26 2.893-1.26.693-1.982 1.091-3.118-6.993zM39.038 68.01s-.057 5.25-.541 8.326a11.251 11.251 0 001.701 8.049c1.137 1.684 2.812 3.255 5.229 3.9L62.4 116.14s4.471-1.043 3.65-2.968l-9.955-41.816-6.298-8.627-10.758 5.28z" fill="#2F2E41"/><path d="M38.901 53.157l-.505 16.27 16.843-4.663.296-.804.722-2.74s-1.67-3.941-1.33-13.118l-4.254-11.347-6.739-.138-.037.037A18.244 18.244 0 0038.9 53.157z" fill="#3F3D56"/><path d="M72.783 59.844a1.635 1.635 0 01-2.098-1.37l-5.675-1.242 2.162-2.107 5.057 1.501a1.643 1.643 0 01.554 3.218z" fill="#FFB6B6"/><path d="M56.117 57.16l-10.462-8.977a4.128 4.128 0 01.99-6.888 4.121 4.121 0 014.902 1.173L59.224 52l10.316 2.807-.274 3.41-13.15-1.057z" fill="#3F3D56"/><path d="M54.298 25.638a7.275 7.275 0 01-6.79 7.253 7.268 7.268 0 01-7.687-6.296 7.274 7.274 0 015.77-8.09 7.267 7.267 0 018.453 5.222 7.3 7.3 0 01.254 1.911z" fill="#FFB8B8"/><path d="M51.651 16.064c-.589-.017-.386-1.128-.861-1.483l-.007.032a1.157 1.157 0 01-2.212.095 1.759 1.759 0 00-1.116-1.172c-.03 1.03-.808 1.924-1.737 2.368-.93.445-1.989.52-3.019.534-1.03.016-2.074-.019-3.073.233-.998.252-1.97.845-2.396 1.783-.427.937-.122 2.228.81 2.665-.722.004-1.335.6-1.585 1.279a5.079 5.079 0 00-.157 2.146c.203 2.659.698 5.522 2.634 7.356 1.476 1.398 3.587 1.961 5.62 1.953 2.032-.008 1.674-.195 3.64-.714 0 0 1.867-5.357 1.397-5.884-.47-.526-.861-1.2-.776-1.902.085-.702.838-1.33 1.492-1.063-.11-.281-.193-.335-.244-.32.033-.08.061-.162.086-.245a2.781 2.781 0 011.736-1.842 2.155 2.155 0 012.357.714c2.151-2.019.817-6.432-2.589-6.533z" fill="#2F2E41"/><path d="M176.634 69.538a1.634 1.634 0 001.114-2.246l4.262-3.947-2.931-.72-3.598 3.859a1.645 1.645 0 001.153 3.054z" fill="#9E616A"/><path d="M178.842 66.352l-1.965-2.8 7.469-7.652 1.786-12.11a4.12 4.12 0 017.775-1.21c.481.98.552 2.113.199 3.147l-4.467 13.044-10.797 7.581z" fill="#E6E6E6"/><path d="M197.014 120.308h-3.189l-1.518-12.304h4.707v12.304z" fill="#9E616A"/><path d="M198.729 126.366h-9.703a1.347 1.347 0 01-1.288-.948 1.354 1.354 0 01.522-1.512l4.792-3.312v-2.16l5.041.301.636 7.631zm-4.501-63.854s2.579 4.573 4.484 7.034c1.76 2.229 1.534 3.412 1.306 6.244-.185 2.025.183 5.837-1.624 7.567l-1.457 32.59s-4.421 1.242-4.629-.841l-11.415-41.441 1.364-10.596 11.971-.557z" fill="#2F2E41"/><path d="M173.114 120l-2.794-1.537 4.597-11.513 4.124 2.268L173.114 120z" fill="#9E616A"/><path d="M171.7 126.135l-1.982-1.091-1.261-.693-5.259-2.893a1.346 1.346 0 01-.672-1.451 1.353 1.353 0 011.185-1.074l5.795-.591 1.04-1.894 4.273 2.694-3.119 6.993zm26.809-58.125s.057 5.25.541 8.326a11.245 11.245 0 01-1.701 8.049c-1.137 1.684-2.812 3.255-5.229 3.9l-16.973 27.856s-4.471-1.043-3.651-2.968l9.956-41.816 6.298-8.627 10.759 5.28z" fill="#2F2E41"/><path d="M193.65 36.654l-.037-.037-6.739.138-4.255 11.347c.341 9.177-1.329 13.118-1.329 13.118l.722 2.74-2.233 13.565 21.464-4.344-2.597-20.024a18.246 18.246 0 00-4.996-16.503z" fill="#E6E6E6"/><path d="M164.764 59.844a1.633 1.633 0 002.098-1.37l5.675-1.242-2.162-2.107-5.057 1.501a1.645 1.645 0 00-.554 3.218z" fill="#9E616A"/><path d="M168.281 58.217l-.274-3.41 10.316-2.806L186 42.468a4.122 4.122 0 016.337-.098 4.13 4.13 0 01-.445 5.813l-10.461 8.977-13.15 1.057z" fill="#E6E6E6"/><path d="M183.503 23.727a7.272 7.272 0 018.453-5.222 7.275 7.275 0 013.169 12.756 7.267 7.267 0 01-9.912-.655 7.274 7.274 0 01-1.71-6.879z" fill="#9E616A"/><path d="M185.895 16.064c.59-.017 7.923.36 8.953.375 1.029.015 2.074-.02 3.073.232.998.252 1.969.845 2.396 1.783.427.938.525 3.265.775 3.944a5.07 5.07 0 01.157 2.146c-.203 2.66-.698 5.522-2.634 7.357-1.476 1.397-3.587 1.96-5.62 1.952-2.032-.008-1.674-.195-3.639-.713 0 0-1.868-5.357-1.398-5.884.471-.527.861-1.202.776-1.903-.085-.701-.838-1.33-1.492-1.063.11-.28.193-.334.244-.32a2.631 2.631 0 01-.086-.244 2.789 2.789 0 00-1.736-1.842 2.155 2.155 0 00-2.357.713c-2.151-2.019-.817-6.431 2.588-6.533z" fill="#2F2E41"/><path d="M72.277 59.316c9.42-1.235 19.937-2.494 28.181 3.319 3.32 2.34 5.918 5.726 6.711 9.765.501 2.554.341 5.177.374 7.763.029 2.316.237 4.627 1.017 6.822 1.319 3.712 3.904 6.865 7.103 9.128a21.32 21.32 0 0011.809 3.823c9.361.234 17.897-4.844 23.857-11.77 6.4-7.44 10.071-16.665 13.275-25.82.423-1.208.841-2.417 1.255-3.627.182-.529-.656-.756-.836-.23-3.202 9.307-6.486 18.804-12.455 26.758-5.474 7.296-13.432 13.095-22.765 13.766-4.254.305-8.535-.533-12.23-2.7-3.392-1.99-6.235-4.986-7.807-8.613a17.778 17.778 0 01-1.331-6.48c-.094-2.576.095-5.164-.223-7.728-.509-4.11-2.595-7.695-5.728-10.374a23.673 23.673 0 00-11.022-5.13c-5.053-.953-10.225-.622-15.3-.03-1.296.152-2.59.32-3.885.49-.546.072-.553.94 0 .868z" fill="#3F3D56"/><path d="M149.725 38.308c-1.651 1.753-4.051 2.682-6.451 2.867a12.61 12.61 0 01-12.482-7.425 12.625 12.625 0 01-1.101-5.004c-.026-1.937.396-3.867.301-5.804-.237-4.787-3.597-9.137-3.239-13.918l2.302.714-4.632-1.458a6.035 6.035 0 01-1.509-.633c-1.348-.885-1.744-2.837-1.096-4.315.651-1.478 2.151-2.467 3.733-2.797a8.444 8.444 0 013.255.02c.514.092 1.022.214 1.521.367a10.09 10.09 0 018.763 1.192 10.065 10.065 0 013.522 4.266 9.898 9.898 0 01.83 3.44c.173 3.227-1.203 6.57-1.006 9.688.042.853.233 1.692.564 2.48 1.705 3.97 7.069 5.54 8.413 9.65.749 2.289-.037 4.918-1.688 6.67z" fill="#2F2E41"/><path d="M150.979 100.37l-2.214 2.296-9.906-7.451 3.268-3.388 8.852 8.543z" fill="#9E616A"/><path d="M156.527 103.341l-1.571 1.629-.999 1.036-4.167 4.32a1.35 1.35 0 01-1.576.269 1.353 1.353 0 01-.726-1.425l.946-5.749-1.554-1.5 3.716-3.42 5.931 4.84z" fill="#2F2E41"/><path d="M129.696 104.743l-2.871 1.39-6.722-10.416 4.237-2.05 5.356 11.076z" fill="#9E616A"/><path d="M133.877 109.449l-2.037.986-1.295.626-5.402 2.615a1.356 1.356 0 01-.834.112 1.356 1.356 0 01-1.094-1.168 1.348 1.348 0 01.167-.825l2.873-5.069-.941-1.945 4.669-1.925 3.894 6.593zm.501-62.266s2.579 4.572 4.485 7.034c1.76 2.229 1.533 3.412 1.306 6.244-.185 2.024.183 5.837-1.625 7.567l-.789 17.662 9.741 11.168s-3.938 5.599-4.147 3.517L128.928 86.96l-7.884-28.625 1.363-10.595 11.971-.557z" fill="#2F2E41"/><path d="M138.659 52.681s.058 5.25.542 8.326a11.255 11.255 0 01-1.701 8.048c-1.138 1.685-2.813 3.256-5.229 3.9l-8.263 13.562 4.59 13.138s-6.597 3.802-5.777 1.876l-7.985-17.082 6.767-28.421 6.298-8.628 10.758 5.281z" fill="#2F2E41"/><path d="M133.801 21.325l-.038-.037-6.739.137-4.254 11.348c.34 9.177-1.33 13.118-1.33 13.118l.722 2.74.297.804 18.935 8.417-2.598-20.024a18.246 18.246 0 00-4.995-16.503z" fill="#F9A826"/><path d="M104.914 44.514a1.636 1.636 0 002.099-1.37l5.674-1.241-2.161-2.108-5.057 1.502a1.643 1.643 0 00-.555 3.218z" fill="#9E616A"/><path d="M108.432 42.888l-.274-3.41 10.316-2.807 7.677-9.533a4.12 4.12 0 017.316 2.9 4.131 4.131 0 01-1.424 2.815l-10.462 8.977-13.149 1.058z" fill="#F9A826"/><path d="M148.577 58.347a1.634 1.634 0 00-1.153-2.227l-.664-5.772-2.313 1.94.985 5.184a1.648 1.648 0 001.184 1.834 1.645 1.645 0 001.961-.96z" fill="#9E616A"/><path d="M147.313 54.682l-3.42-.07-1.754-10.55-8.71-8.598a4.124 4.124 0 01.54-6.317 4.123 4.123 0 015.736 1.027l7.878 11.315-.27 13.194z" fill="#F9A826"/><path d="M123.654 8.398a7.27 7.27 0 0114.222 2.868 7.271 7.271 0 01-12.513 4.01 7.268 7.268 0 01-1.709-6.878z" fill="#9E616A"/><path d="M122.73 50.58a7.875 7.875 0 01-6.45-3.397c-.401-.604-.746-1.354-.513-2.086a1.098 1.098 0 011.177-.83c.571.08 1.062.517 1.445.917a15.75 15.75 0 011.421 1.823c.679.96 2.001 2.513.979 3.662-.859.967-2.304 1.049-3.461 1.397-1.25.377-2.53 1.222-2.642 2.647-.109 1.386 1.222 2.32 2.449 2.522a4.532 4.532 0 003.999-1.445 6.143 6.143 0 001.496-4.056.437.437 0 00-.427-.427.433.433 0 00-.441.412c-.021 1.356-.465 2.74-1.469 3.69-.94.89-2.434 1.314-3.659.79-.605-.259-1.169-.804-1.075-1.514.086-.651.615-1.161 1.168-1.455 1.25-.665 2.751-.607 3.97-1.374 1.163-.732 1.626-1.956 1.098-3.254a10.44 10.44 0 00-1.232-2.027 19.547 19.547 0 00-1.453-1.888c-.783-.862-2.012-1.697-3.192-1.082-1.344.701-1.255 2.46-.633 3.61 1.419 2.621 4.505 4.22 7.43 4.232a.432.432 0 00.426-.427.432.432 0 00-.411-.44zm19.706-31.072l-11.525-2.357c-.419-2.212 3.452-5.194 4.458-8.83-1.798-.217-4.206-.578-6.291-1.05-2.085-.474-3.848-1.056-4.357-1.718a6.944 6.944 0 018.191-5.411l1.414.289c.046.008.092.02.138.032a6.9 6.9 0 014.236 2.906 16.437 16.437 0 013.912 3.011 9.898 9.898 0 01.83 3.44c.173 3.227-1.203 6.57-1.006 9.688z" fill="#2F2E41"/><path d="M250 126.656a.346.346 0 01-.344.344H.344a.342.342 0 01-.344-.344.345.345 0 01.344-.344h249.312a.333.333 0 01.243.1.34.34 0 01.101.244z" fill="#CCC"/><path d="M132.615 120.208c36.363-47.078 112.372-3.568 167.096-42.696m-165.212 50.042c36.363-47.078 112.372-3.568 167.096-42.696m-165.213 50.041c36.363-47.078 112.373-3.567 167.097-42.695m-165.213 50.041c36.363-47.078 112.373-3.568 167.097-42.696M140.15 149.591c36.363-47.078 112.373-3.568 167.096-42.696m-165.212 50.042c36.363-47.079 112.372-3.568 167.096-42.696m-163.343 57.391c36.363-47.079 112.372-3.568 167.096-42.696m-168.951 35.343c36.363-47.079 112.372-3.568 167.096-42.696" stroke="#8F5EC7" stroke-opacity=".11" stroke-width="4"/></g><defs><clipPath id="clip0_1_2553"><path fill="#fff" d="M0 0h250v127H0z"/></clipPath></defs></svg>