<svg width="209" height="32" fill="none" xmlns="http://www.w3.org/2000/svg"><path d="M27.87 31V11.428l-7.645 14.574h-3.234L9.347 11.428V31H3.551V1.18h6.216l8.82 16.968L27.491 1.18h6.174V31H27.87zm24.747.21c-2.184 0-4.172-.42-5.964-1.26a14.488 14.488 0 01-4.578-3.402 16.65 16.65 0 01-2.94-4.872 15.44 15.44 0 01-1.05-5.586c0-1.988.364-3.878 1.092-5.67a16.306 16.306 0 013.066-4.83 14.424 14.424 0 014.62-3.36c1.792-.84 3.752-1.26 5.88-1.26 2.156 0 4.116.434 5.88 1.302 1.792.868 3.318 2.03 4.578 3.486a16.65 16.65 0 012.94 4.872 15.11 15.11 0 011.05 5.544c0 1.96-.364 3.85-1.092 5.67a15.906 15.906 0 01-3.066 4.83 14.12 14.12 0 01-4.62 3.318c-1.764.812-3.696 1.218-5.796 1.218zm-8.652-15.12c0 1.288.196 2.534.588 3.738a10.76 10.76 0 001.68 3.234 8.765 8.765 0 002.73 2.226c1.092.532 2.324.798 3.696.798 1.4 0 2.646-.28 3.738-.84a8.406 8.406 0 002.73-2.31 10.677 10.677 0 001.638-3.234c.392-1.204.588-2.408.588-3.612 0-1.288-.21-2.52-.63-3.696a9.756 9.756 0 00-1.722-3.192 7.55 7.55 0 00-2.73-2.226c-1.064-.56-2.268-.84-3.612-.84-1.428 0-2.688.294-3.78.882a8.083 8.083 0 00-2.688 2.268 10.872 10.872 0 00-1.68 3.192 12.147 12.147 0 00-.546 3.612zM95.955 31V11.428l-7.644 14.574h-3.234l-7.644-14.574V31h-5.796V1.18h6.216l8.82 16.968L95.577 1.18h6.174V31h-5.796zm30.082-24.234a7.125 7.125 0 00-1.47-1.26 9.31 9.31 0 00-1.89-1.008c-.7-.28-1.456-.504-2.268-.672a12.014 12.014 0 00-2.52-.252c-2.604 0-4.522.504-5.754 1.512-1.204.98-1.806 2.324-1.806 4.032 0 1.176.28 2.1.84 2.772.588.672 1.498 1.218 2.73 1.638 1.232.42 2.8.854 4.704 1.302 2.128.448 3.962.98 5.502 1.596 1.54.616 2.73 1.456 3.57 2.52.84 1.036 1.26 2.45 1.26 4.242 0 1.372-.266 2.562-.798 3.57a7.115 7.115 0 01-2.226 2.52c-.952.672-2.086 1.176-3.402 1.512-1.316.308-2.758.462-4.326.462-1.54 0-3.024-.154-4.452-.462-1.4-.336-2.73-.812-3.99-1.428a16.54 16.54 0 01-3.528-2.436l1.47-2.394a12.07 12.07 0 001.89 1.596c.756.476 1.582.91 2.478 1.302.924.392 1.904.7 2.94.924 1.064.196 2.156.294 3.276.294 2.38 0 4.228-.434 5.544-1.302 1.344-.868 2.016-2.156 2.016-3.864 0-1.232-.336-2.212-1.008-2.94-.672-.756-1.68-1.372-3.024-1.848s-2.996-.938-4.956-1.386c-2.072-.476-3.822-1.008-5.25-1.596-1.428-.588-2.506-1.358-3.234-2.31-.7-.98-1.05-2.268-1.05-3.864 0-1.848.448-3.402 1.344-4.662.924-1.288 2.184-2.254 3.78-2.898 1.596-.672 3.43-1.008 5.502-1.008 1.316 0 2.534.14 3.654.42 1.148.252 2.198.63 3.15 1.134.98.504 1.89 1.134 2.73 1.89l-1.428 2.352zm28.116 21.63V31h-20.034V1.18h19.656v2.604h-16.716v10.752h14.574v2.478h-14.574v11.382h17.094zm25.594 0V31h-20.034V1.18h19.656v2.604h-16.716v10.752h14.574v2.478h-14.574v11.382h17.094zM185.306 31V1.222h2.94v17.304L204.668 1.18h3.234l-12.18 13.104L208.532 31h-3.318l-11.382-14.952-5.586 5.796V31h-2.94z" fill="#000"/></svg>