<svg width="29" height="28" fill="none" xmlns="http://www.w3.org/2000/svg"><path d="M19.853 19.146l-3.412-3.412A4.727 4.727 0 0017.5 12.75 4.756 4.756 0 0012.75 8 4.756 4.756 0 008 12.75a4.756 4.756 0 004.75 4.75c1.13 0 2.167-.398 2.984-1.059l3.412 3.413a.499.499 0 00.707 0 .5.5 0 000-.707zM12.75 16.5A3.754 3.754 0 019 12.75 3.754 3.754 0 0112.75 9a3.754 3.754 0 013.75 3.75 3.754 3.754 0 01-3.75 3.75z" fill="#1E3173"/><rect x="1.143" y="1" width="26" height="26" rx="13" stroke="#1E3173" stroke-width="2"/></svg>